# xmcd
#
# Track frame offsets:
#	150
#	3850
#	21496
#	37702
#	54072
#	68399
#	81809
#	100015
#	114467
#	130994
#	148705
#	164970
#	178429
#	198058
#	213921
#	227895
#	247322
#	264882
#	281027
#	296261
#	313811
#
# Disc length: 4390 seconds
#
# Revision: 0
# Processed by: cddbd v1.5.1PL0 Copyright (c) Steve Scherf et al.
# Submitted via: audiograbber 1.83.01
#
DISCID=29112415
DTITLE=Sean Paul - 2005-The Trinity
DYEAR=2005
DGENRE=Hip-Hop
TTITLE0=Fire Links
TTITLE1=Head In The Zone
TTITLE2=We Be Burning
TTITLE3=Send It Or
TTITLE4=Ever Blazin
TTITLE5=Eye Deh A Mi Ruee
TTITLE6=Give It Up To Me
TTITLE7=Yardie Bone
TTITLE8=Never Gonna Be The Same
TTITLE9=I'll Take You There
TTITLE10=Temperature
TTITLE11=Breakout
TTITLE12=Head To Toe
TTITLE13=Connection
TTITLE14=Straight Up
TTITLE15=All On Me
TTITLE16=Change The Game
TTITLE17=The Trinity
TTITLE18=Ignite It (Bonus)
TTITLE19=Get Busy (Bonus)
TTITLE20=We Be Burnin (Bonus)
EXTD=
EXTT0=
EXTT1=
EXTT2=
EXTT3=
EXTT4=
EXTT5=
EXTT6=
EXTT7=
EXTT8=
EXTT9=
EXTT10=
EXTT11=
EXTT12=
EXTT13=
EXTT14=
EXTT15=
EXTT16=
EXTT17=
EXTT18=
EXTT19=
EXTT20=
PLAYORDER=
